<?xml version="1.0" encoding="UTF-8" standalone="no"?>
<!-- Created with Inkscape (http://www.inkscape.org/) -->

<svg
   xmlns:dc="http://purl.org/dc/elements/1.1/"
   xmlns:cc="http://creativecommons.org/ns#"
   xmlns:rdf="http://www.w3.org/1999/02/22-rdf-syntax-ns#"
   xmlns:svg="http://www.w3.org/2000/svg"
   xmlns="http://www.w3.org/2000/svg"
   xmlns:sodipodi="http://sodipodi.sourceforge.net/DTD/sodipodi-0.dtd"
   xmlns:inkscape="http://www.inkscape.org/namespaces/inkscape"
   width="29.074799mm"
   height="29.074886mm"
   viewBox="0 0 103.02094 103.02125"
   id="svg4356"
   version="1.1"
   inkscape:version="0.91 r13725"
   sodipodi:docname="cross.svg">
  <defs
     id="defs4358" />
  <sodipodi:namedview
     id="base"
     pagecolor="#ffffff"
     bordercolor="#666666"
     borderopacity="1.0"
     inkscape:pageopacity="0.0"
     inkscape:pageshadow="2"
     inkscape:zoom="0.35"
     inkscape:cx="-549.20381"
     inkscape:cy="-31.346515"
     inkscape:document-units="px"
     inkscape:current-layer="layer1"
     showgrid="false"
     fit-margin-top="0"
     fit-margin-left="0"
     fit-margin-right="0"
     fit-margin-bottom="0"
     inkscape:window-width="1366"
     inkscape:window-height="710"
     inkscape:window-x="0"
     inkscape:window-y="30"
     inkscape:window-maximized="1" />
  <metadata
     id="metadata4361">
    <rdf:RDF>
      <cc:Work
         rdf:about="">
        <dc:format>image/svg+xml</dc:format>
        <dc:type
           rdf:resource="http://purl.org/dc/dcmitype/StillImage" />
        <dc:title></dc:title>
      </cc:Work>
    </rdf:RDF>
  </metadata>
  <g
     inkscape:label="Ebene 1"
     inkscape:groupmode="layer"
     id="layer1"
     transform="translate(-259.9181,-397.99444)">
    <path
       d="m 326.4781,421.55194 -15.05125,15.05125 -15.04875,-15.0475 -12.9,12.89875 15.05,15.05 -15.05,15.05125 12.9,12.89875 15.04875,-15.05125 15.05125,15.05125 12.9,-12.89875 -15.05125,-15.05125 15.05125,-15.05 -12.9,-12.9025"
       style="fill:#ed1c24;fill-opacity:1;fill-rule:nonzero;stroke:none"
       id="path648"
       inkscape:connector-curvature="0" />
    <path
       d="m 342.15935,480.23694 c -8.2075,8.20875 -19.12125,12.73 -30.73125,12.73 -11.60875,0 -22.525,-4.52125 -30.73375,-12.73 -8.20625,-8.20875 -12.7275,-19.125 -12.7275,-30.7325 0,-11.61 4.52125,-22.5225 12.7275,-30.73125 8.20875,-8.21 19.125,-12.73 30.73375,-12.73 11.61,0 22.52375,4.52 30.73125,12.73 l 10e-4,0 c 8.20875,8.20875 12.73,19.12125 12.73,30.73125 0,11.6075 -4.52125,22.52375 -12.73125,30.7325 z m -30.73125,-82.2425 c -13.1825,0 -26.36625,5.03 -36.42375,15.0875 -20.115,20.115 -20.115,52.73125 0,72.84625 10.0575,10.0575 23.24125,15.0875 36.42375,15.0875 13.18375,0 26.36625,-5.03 36.42375,-15.0875 20.11625,-20.115 20.11625,-52.73125 0,-72.84625 -10.0575,-10.0575 -23.24,-15.0875 -36.42375,-15.0875"
       style="fill:#ed1c24;fill-opacity:1;fill-rule:nonzero;stroke:none"
       id="path650"
       inkscape:connector-curvature="0" />
  </g>
</svg>
